<?xml version="1.0" encoding="utf-8"?>
<!-- Generator: Adobe Illustrator 16.0.0, SVG Export Plug-In . SVG Version: 6.00 Build 0)  -->
<!DOCTYPE svg PUBLIC "-//W3C//DTD SVG 1.1//EN" "http://www.w3.org/Graphics/SVG/1.1/DTD/svg11.dtd">
<svg version="1.1" id="Layer_1" xmlns="http://www.w3.org/2000/svg" xmlns:xlink="http://www.w3.org/1999/xlink" x="0px" y="0px"
	 width="48px" height="48px" viewBox="0 0 48 48" enable-background="new 0 0 48 48" xml:space="preserve">
<g>
	<g>
		<g>
			<path fill="#E6C402" d="M17.515,25.783c-3.146,0-7.115-0.979-8.823-3.725C8.644,21.979,8.6,21.896,8.565,21.81L3.688,9.766
				C2.768,8.19,2.747,6.308,3.64,4.703c0.917-1.65,2.59-2.635,4.478-2.635h2.981c0.899,0,1.629,0.729,1.629,1.628
				c0,0.898-0.729,1.627-1.629,1.627H8.118c-0.991,0-1.472,0.672-1.633,0.96c-0.16,0.29-0.477,1.052,0.047,1.895
				c0.05,0.079,0.091,0.162,0.126,0.248l4.866,12.015c0.873,1.252,3.255,2.087,5.991,2.087s5.118-0.834,5.991-2.087l4.865-12.015
				c0.035-0.086,0.078-0.169,0.126-0.248c0.524-0.843,0.208-1.604,0.047-1.895c-0.161-0.288-0.642-0.96-1.633-0.96h-2.982
				c-0.897,0-1.627-0.729-1.627-1.627c0-0.899,0.729-1.628,1.627-1.628h2.982c1.888,0,3.563,0.984,4.479,2.635
				c0.893,1.604,0.871,3.487-0.049,5.063L26.464,21.81c-0.035,0.086-0.077,0.17-0.126,0.249
				C24.631,24.805,20.662,25.783,17.515,25.783z M24.955,21.199h0.002H24.955z"/>
		</g>
	</g>
	<g>
		<g>
			<path fill="#E6C402" d="M28.184,48c-6.781,0-12.297-5.516-12.297-12.298V24.154c0-0.898,0.729-1.626,1.629-1.626
				s1.627,0.729,1.627,1.626v11.548c0,4.986,4.057,9.042,9.042,9.042c4.986,0,9.041-4.056,9.041-9.042V25.375
				c0-0.899,0.729-1.627,1.629-1.627s1.628,0.728,1.628,1.627v10.327C40.481,42.484,34.964,48,28.184,48z"/>
		</g>
	</g>
	<g>
		<g>
			<path fill="#02AB4E" d="M38.854,25.783c-3.398,0-6.163-2.765-6.163-6.162c0-3.398,2.765-6.163,6.163-6.163
				s6.163,2.765,6.163,6.163C45.017,23.019,42.252,25.783,38.854,25.783z M38.854,16.714c-1.603,0-2.906,1.305-2.906,2.907
				s1.304,2.906,2.906,2.906s2.906-1.304,2.906-2.906S40.456,16.714,38.854,16.714z"/>
		</g>
	</g>
	<g>
		<g>
			<path fill="#02AB4E" d="M13.071,6.528h-1.737c-1.591,0-2.885-1.294-2.885-2.884V2.884C8.449,1.294,9.743,0,11.333,0h1.737
				c1.591,0,2.883,1.294,2.883,2.884v0.761C15.954,5.234,14.662,6.528,13.071,6.528z"/>
		</g>
	</g>
	<g>
		<g>
			<path fill="#02AB4E" d="M23.697,6.528h-1.737c-1.591,0-2.886-1.294-2.886-2.884V2.884c0-1.59,1.295-2.884,2.886-2.884h1.737
				c1.591,0,2.883,1.294,2.883,2.884v0.761C26.58,5.234,25.288,6.528,23.697,6.528z"/>
		</g>
	</g>
</g>
</svg>
