<?xml version="1.0" encoding="utf-8"?>
<!-- Generator: Adobe Illustrator 16.0.0, SVG Export Plug-In . SVG Version: 6.00 Build 0)  -->
<!DOCTYPE svg PUBLIC "-//W3C//DTD SVG 1.1//EN" "http://www.w3.org/Graphics/SVG/1.1/DTD/svg11.dtd">
<svg version="1.1" id="Layer_1" xmlns="http://www.w3.org/2000/svg" xmlns:xlink="http://www.w3.org/1999/xlink" x="0px" y="0px"
	 width="48px" height="48px" viewBox="0 0 48 48" enable-background="new 0 0 48 48" xml:space="preserve">
<g>
	<g>
		<path fill="#02AB4E" d="M29.873,28.593h-4.747c-1.213,0-2.2-0.987-2.2-2.2v-2.227H20.7c-1.213,0-2.201-0.987-2.201-2.201v-4.746
			c0-1.214,0.988-2.201,2.201-2.201h2.227v-2.226c0-1.214,0.986-2.2,2.2-2.2h4.747c1.213,0,2.201,0.986,2.201,2.2v2.226h2.225
			c1.215,0,2.201,0.987,2.201,2.201v4.746c0,1.214-0.986,2.201-2.201,2.201h-2.225v2.227C32.074,27.605,31.086,28.593,29.873,28.593
			z M20.7,17.02c-0.109,0-0.199,0.09-0.199,0.199v4.746c0,0.11,0.09,0.199,0.199,0.199h3.227c0.553,0,1.001,0.449,1.001,1.001v3.228
			c0,0.109,0.088,0.198,0.199,0.198h4.747c0.109,0,0.199-0.089,0.199-0.198v-3.228c0-0.552,0.447-1.001,1-1.001h3.227
			c0.11,0,0.199-0.089,0.199-0.199v-4.746c0-0.109-0.089-0.199-0.199-0.199h-3.227c-0.553,0-1-0.448-1-1.001v-3.227
			c0-0.11-0.09-0.198-0.199-0.198h-4.747c-0.11,0-0.199,0.088-0.199,0.198v3.227c0,0.553-0.448,1.001-1.001,1.001H20.7z"/>
	</g>
	<g>
		<path fill="#E6C402" d="M30.845,40.547c-0.636,0-1.198-0.454-1.313-1.102c-0.128-0.727,0.356-1.418,1.081-1.547
			c8.481-1.5,14.637-8.852,14.637-17.479c0-9.787-7.963-17.751-17.75-17.751c-8.736,0-16.285,6.506-17.559,15.132
			c-0.108,0.73-0.786,1.233-1.515,1.126c-0.73-0.108-1.234-0.786-1.126-1.516c0.709-4.797,3.124-9.2,6.8-12.399
			C17.813,1.78,22.573,0,27.5,0c11.26,0,20.419,9.16,20.419,20.42c0,4.827-1.716,9.512-4.831,13.19
			c-3.078,3.635-7.344,6.091-12.01,6.917C31,40.541,30.922,40.547,30.845,40.547z"/>
	</g>
	<g>
		<path fill="#02AB4E" d="M22.535,48c-1.083,0-2.136-0.322-3.007-0.984l-9.033-6.279c-0.823-0.527-2.623-2.327-3.15-3.15
			l-6.279-9.033c-1.592-2.093-1.219-5.238,0.873-7.329l3.358-3.359c1.065-1.065,2.487-1.646,3.894-1.589
			c1.213,0.048,2.296,0.561,3.051,1.444l1.441,1.69c1.545,1.811,1.279,4.705-0.605,6.59l-0.334,0.334l3.315,4.11l1.579,1.578
			l4.109,3.315l0.334-0.334c1.885-1.884,4.779-2.15,6.589-0.605l0,0l1.689,1.442c0.885,0.755,1.397,1.838,1.445,3.05
			c0.057,1.408-0.523,2.828-1.589,3.894l-3.358,3.359C25.635,47.365,24.055,48,22.535,48z M9.002,18.941
			c-0.643,0-1.301,0.291-1.818,0.811l-3.359,3.359c-1.136,1.136-1.41,2.822-0.625,3.84c0.014,0.018,0.027,0.035,0.039,0.054
			l6.313,9.081c0.014,0.021,0.027,0.041,0.04,0.062c0.292,0.474,1.867,2.049,2.342,2.341c0.02,0.014,0.04,0.026,0.061,0.04
			l9.081,6.313c0.019,0.012,0.036,0.025,0.054,0.039c1.018,0.785,2.705,0.512,3.841-0.625l3.358-3.359
			c0.541-0.541,0.836-1.232,0.81-1.9c-0.013-0.325-0.112-0.785-0.511-1.125l-1.689-1.441c-0.759-0.647-2.062-0.445-2.968,0.462
			l-1.183,1.183c-0.482,0.481-1.251,0.522-1.782,0.094l-5.1-4.113c-0.036-0.029-0.071-0.061-0.105-0.094l-1.679-1.68
			c-0.034-0.033-0.065-0.069-0.095-0.105l-4.113-5.1c-0.429-0.531-0.388-1.3,0.095-1.781l1.183-1.183
			c0.906-0.906,1.109-2.21,0.461-2.969l-1.441-1.69c-0.34-0.398-0.799-0.498-1.125-0.511C9.057,18.941,9.03,18.941,9.002,18.941z"/>
	</g>
</g>
</svg>
